# xmcd
#
# Track frame offsets: 
#        150
#        14666
#        33742
#        54451
#        74704
#        91930
#        108367
#        124697
#        142526
#
# Disc length: 2126 seconds
#
# Revision: 0
# Processed by: cddbd v1.5.2PL0 Copyright (c) Steve Scherf et al.
# Submitted via: ExactAudioCopy v0.95b4
#
DISCID=79084c09
DTITLE=Bill Weisband - Songs From The Cold War
DYEAR=1900
DGENRE=
TTITLE0=Cold War
TTITLE1=Tatto
TTITLE2=Black Raven
TTITLE3=What We're You Thinking
TTITLE4=Days You Spent With Me
TTITLE5=Father
TTITLE6=Hard Goodbye
TTITLE7=Precious Things
TTITLE8=Songs From The Cold War
EXTD=
EXTT0=
EXTT1=
EXTT2=
EXTT3=
EXTT4=
EXTT5=
EXTT6=
EXTT7=
EXTT8=
PLAYORDER=
